<?xml version="1.0" encoding="UTF-8" standalone="no"?>
<!-- Created with Inkscape (http://www.inkscape.org/) -->

<svg
   width="48"
   height="48"
   viewBox="0 0 12.7 12.7"
   version="1.1"
   id="svg1"
   xmlns="http://www.w3.org/2000/svg"
   xmlns:svg="http://www.w3.org/2000/svg">
  <defs
     id="defs1" />
  <g
     id="layer1">
    <rect
       style="display:inline;fill:#f5853f;fill-opacity:1;stroke-width:0.1"
       id="rect1"
       width="12.7"
       height="12.7"
       x="0"
       y="0"
       ry="3" />
    <path
       style="font-weight:600;font-size:14.1111px;line-height:1.35;font-family:Gluten;-inkscape-font-specification:'Gluten Semi-Bold';fill:#fffcf9;stroke-width:0.1"
       d="m 4.2827239,10.653886 q -0.345722,0 -0.6420551,-0.155222 Q 3.3443357,10.343442 3.0973915,10.040053 2.8575028,9.7296089 2.6740585,9.2851093 2.6105585,9.0804983 2.5470586,8.8053319 2.4906142,8.5231099 2.4341698,8.191499 2.3847809,7.8598882 2.3424476,7.5141662 2.3001143,7.1613887 2.2718921,6.8156668 2.2436699,6.4628892 2.2225032,6.1453895 2.2083921,5.8278897 2.2083921,5.5668344 q 0,-1.3193879 0.3668887,-2.0884428 0.3668886,-0.7761106 1.1712213,-1.1006659 0.8113882,-0.3316108 2.116665,-0.3316108 0.9172215,0 1.7497764,0.1622776 0.8325549,0.1622777 1.4816655,0.5221107 0.6491107,0.3527775 1.023055,0.9242771 0.373944,0.564444 0.373944,1.3758323 0,0.6138328 -0.239889,1.0794991 Q 10.011831,6.5687225 9.5743864,6.8862223 9.1439979,7.1966665 8.5442761,7.3659997 7.9445544,7.5353329 7.2389994,7.5635551 6.7733331,7.5847217 6.3711667,7.5423884 5.9760559,7.4929996 5.6232784,7.4929996 q -0.2187221,0 -0.2751665,0.1622776 -0.049389,0.1552221 -0.049389,0.423333 0,0.1128888 0,0.2539998 0.00706,0.141111 0.014111,0.3033887 0.00706,0.1552221 0.014111,0.3104442 0.014111,0.1552221 0.014111,0.2963331 0.00706,0.1340554 0.00706,0.2398887 0,0.5785553 -0.2610553,0.8748883 -0.2539998,0.296333 -0.8043327,0.296333 z M 5.6726672,6.0889451 q 0.3386665,0 0.6773329,-0.035278 Q 6.6886665,6.011334 6.9920551,5.933723 7.2954438,5.8490564 7.5282769,5.7150009 7.7611101,5.5738899 7.8951655,5.3763345 8.029221,5.1787791 8.029221,4.9177238 8.029221,4.6284462 7.9022211,4.4238353 7.7822767,4.2192243 7.5847213,4.0851689 7.3871659,3.9440579 7.1543328,3.8664468 6.9214996,3.7817802 6.6886665,3.7465025 6.4628889,3.7112247 6.2865001,3.7112247 q -0.3174998,0 -0.5573885,0.049389 -0.2328331,0.049389 -0.3951108,0.1552221 -0.1552221,0.1058332 -0.2328331,0.2751664 -0.070556,0.1693332 -0.070556,0.4092219 0,0.2963331 0.021167,0.5362218 0.021167,0.2398887 0.0635,0.423333 0.049389,0.1763888 0.1199443,0.2963331 0.077611,0.1128888 0.1834443,0.1763888 0.1128888,0.056444 0.2539999,0.056444 z"
       id="text2"
       aria-label="P" />
  </g>
</svg>
